<mxfile host="app.diagrams.net" agent="Mozilla/5.0 (Windows NT 10.0; Win64; x64) AppleWebKit/537.36 (KHTML, like Gecko) Chrome/131.0.0.0 Safari/537.36" version="24.9.3">
  <diagram name="Страница — 1" id="KH0s6EQaipjiKsQ9ndKl">
    <mxGraphModel dx="712" dy="771" grid="1" gridSize="10" guides="1" tooltips="1" connect="1" arrows="1" fold="1" page="1" pageScale="1" pageWidth="827" pageHeight="1169" math="0" shadow="0">
      <root>
        <mxCell id="0" />
        <mxCell id="1" parent="0" />
        <mxCell id="guU1zWuuyde45Qu0r5Fd-9" value="" style="edgeStyle=orthogonalEdgeStyle;rounded=0;orthogonalLoop=1;jettySize=auto;html=1;" edge="1" parent="1" source="guU1zWuuyde45Qu0r5Fd-1" target="guU1zWuuyde45Qu0r5Fd-3">
          <mxGeometry relative="1" as="geometry" />
        </mxCell>
        <mxCell id="guU1zWuuyde45Qu0r5Fd-1" value="Start" style="ellipse;whiteSpace=wrap;html=1;fillColor=#d5e8d4;strokeColor=#82b366;" vertex="1" parent="1">
          <mxGeometry x="160" width="120" height="80" as="geometry" />
        </mxCell>
        <mxCell id="guU1zWuuyde45Qu0r5Fd-2" value="End" style="ellipse;whiteSpace=wrap;html=1;fillColor=#f8cecc;strokeColor=#b85450;" vertex="1" parent="1">
          <mxGeometry x="385" y="500" width="120" height="80" as="geometry" />
        </mxCell>
        <mxCell id="guU1zWuuyde45Qu0r5Fd-10" value="" style="edgeStyle=orthogonalEdgeStyle;rounded=0;orthogonalLoop=1;jettySize=auto;html=1;" edge="1" parent="1" source="guU1zWuuyde45Qu0r5Fd-3" target="guU1zWuuyde45Qu0r5Fd-4">
          <mxGeometry relative="1" as="geometry" />
        </mxCell>
        <mxCell id="guU1zWuuyde45Qu0r5Fd-3" value="int n" style="rounded=0;whiteSpace=wrap;html=1;" vertex="1" parent="1">
          <mxGeometry x="185" y="110" width="70" height="20" as="geometry" />
        </mxCell>
        <mxCell id="guU1zWuuyde45Qu0r5Fd-11" value="" style="edgeStyle=orthogonalEdgeStyle;rounded=0;orthogonalLoop=1;jettySize=auto;html=1;" edge="1" parent="1" source="guU1zWuuyde45Qu0r5Fd-4" target="guU1zWuuyde45Qu0r5Fd-5">
          <mxGeometry relative="1" as="geometry" />
        </mxCell>
        <mxCell id="guU1zWuuyde45Qu0r5Fd-4" value="cin &amp;gt;&amp;gt; n" style="shape=parallelogram;perimeter=parallelogramPerimeter;whiteSpace=wrap;html=1;fixedSize=1;" vertex="1" parent="1">
          <mxGeometry x="170" y="150" width="100" height="30" as="geometry" />
        </mxCell>
        <mxCell id="guU1zWuuyde45Qu0r5Fd-12" value="" style="edgeStyle=orthogonalEdgeStyle;rounded=0;orthogonalLoop=1;jettySize=auto;html=1;" edge="1" parent="1" source="guU1zWuuyde45Qu0r5Fd-5" target="guU1zWuuyde45Qu0r5Fd-6">
          <mxGeometry relative="1" as="geometry" />
        </mxCell>
        <mxCell id="guU1zWuuyde45Qu0r5Fd-5" value="&lt;div&gt;vector&amp;lt;int&amp;gt; a(n);&lt;/div&gt;&lt;div&gt;long long sum = 0;&lt;/div&gt;" style="rounded=0;whiteSpace=wrap;html=1;" vertex="1" parent="1">
          <mxGeometry x="160" y="210" width="120" height="60" as="geometry" />
        </mxCell>
        <mxCell id="guU1zWuuyde45Qu0r5Fd-14" style="edgeStyle=orthogonalEdgeStyle;rounded=0;orthogonalLoop=1;jettySize=auto;html=1;exitX=1;exitY=0.5;exitDx=0;exitDy=0;entryX=0.5;entryY=0;entryDx=0;entryDy=0;" edge="1" parent="1" source="guU1zWuuyde45Qu0r5Fd-6" target="guU1zWuuyde45Qu0r5Fd-7">
          <mxGeometry relative="1" as="geometry" />
        </mxCell>
        <mxCell id="guU1zWuuyde45Qu0r5Fd-16" value="" style="edgeStyle=orthogonalEdgeStyle;rounded=0;orthogonalLoop=1;jettySize=auto;html=1;" edge="1" parent="1" source="guU1zWuuyde45Qu0r5Fd-6" target="guU1zWuuyde45Qu0r5Fd-15">
          <mxGeometry relative="1" as="geometry" />
        </mxCell>
        <mxCell id="guU1zWuuyde45Qu0r5Fd-6" value="for (int i = 0; i &amp;lt; n; i++)" style="rhombus;whiteSpace=wrap;html=1;" vertex="1" parent="1">
          <mxGeometry x="150" y="310" width="140" height="70" as="geometry" />
        </mxCell>
        <mxCell id="guU1zWuuyde45Qu0r5Fd-19" value="" style="edgeStyle=orthogonalEdgeStyle;rounded=0;orthogonalLoop=1;jettySize=auto;html=1;" edge="1" parent="1" source="guU1zWuuyde45Qu0r5Fd-7" target="guU1zWuuyde45Qu0r5Fd-2">
          <mxGeometry relative="1" as="geometry" />
        </mxCell>
        <mxCell id="guU1zWuuyde45Qu0r5Fd-7" value="cout &amp;lt;&amp;lt; sum &amp;lt;&amp;lt; endl" style="shape=parallelogram;perimeter=parallelogramPerimeter;whiteSpace=wrap;html=1;fixedSize=1;" vertex="1" parent="1">
          <mxGeometry x="370" y="420" width="150" height="30" as="geometry" />
        </mxCell>
        <mxCell id="guU1zWuuyde45Qu0r5Fd-18" style="edgeStyle=orthogonalEdgeStyle;rounded=0;orthogonalLoop=1;jettySize=auto;html=1;exitX=0.5;exitY=1;exitDx=0;exitDy=0;" edge="1" parent="1" source="guU1zWuuyde45Qu0r5Fd-8">
          <mxGeometry relative="1" as="geometry">
            <mxPoint x="220" y="290" as="targetPoint" />
            <Array as="points">
              <mxPoint x="220" y="500" />
              <mxPoint x="121" y="500" />
            </Array>
          </mxGeometry>
        </mxCell>
        <mxCell id="guU1zWuuyde45Qu0r5Fd-8" value="sum += a[i] - 1" style="rounded=0;whiteSpace=wrap;html=1;" vertex="1" parent="1">
          <mxGeometry x="165" y="450" width="110" height="30" as="geometry" />
        </mxCell>
        <mxCell id="guU1zWuuyde45Qu0r5Fd-17" value="" style="edgeStyle=orthogonalEdgeStyle;rounded=0;orthogonalLoop=1;jettySize=auto;html=1;" edge="1" parent="1" source="guU1zWuuyde45Qu0r5Fd-15" target="guU1zWuuyde45Qu0r5Fd-8">
          <mxGeometry relative="1" as="geometry" />
        </mxCell>
        <mxCell id="guU1zWuuyde45Qu0r5Fd-15" value="cin &amp;gt;&amp;gt; a[i]" style="shape=parallelogram;perimeter=parallelogramPerimeter;whiteSpace=wrap;html=1;fixedSize=1;" vertex="1" parent="1">
          <mxGeometry x="165" y="400" width="110" height="30" as="geometry" />
        </mxCell>
      </root>
    </mxGraphModel>
  </diagram>
</mxfile>
